<svg width="896" height="896" viewBox="0 0 896 896" fill="none" xmlns="http://www.w3.org/2000/svg">
<path d="M613.398 618.7H613.4C618.076 618.7 621.9 614.876 621.9 610.2C621.9 608.174 621.153 606.266 619.891 604.688L619.883 604.679L490.153 450L619.783 295.421L619.79 295.412C621.053 293.834 621.8 291.926 621.8 289.9C621.8 285.12 617.972 281.4 613.3 281.4H613.298L547.298 281.7L547.066 281.701L546.917 281.879L448 399.822L349.083 281.779L348.934 281.601L348.702 281.6L282.602 281.3H282.6C277.924 281.3 274.1 285.124 274.1 289.8L274.1 289.806C274.122 291.819 274.833 293.764 276.114 295.318L276.117 295.322L405.947 449.9L276.117 604.578L276.11 604.588C274.847 606.166 274.1 608.074 274.1 610.1C274.1 614.88 277.928 618.6 282.6 618.6H282.602L348.702 618.3L348.934 618.299L349.083 618.121L448 500.178L547.017 618.221L547.166 618.399L547.398 618.4L613.398 618.7ZM0.5 448C0.5 200.876 200.876 0.5 448 0.5C695.124 0.5 895.5 200.876 895.5 448C895.5 695.124 695.124 895.5 448 895.5C200.876 895.5 0.5 695.124 0.5 448Z" fill="white" stroke="white"/>
</svg>
