<svg width="512" height="512" viewBox="0 0 512 512" fill="none" xmlns="http://www.w3.org/2000/svg">
<path d="M177 305L43 439V384C43 370 35.6667 363 21 363C7 363 0 370 0 384V491C0 497 2 502 6 506C10 510 15 512 21 512H128C142 512 149 505 149 491C149 476.333 142 469 128 469H73L207 335C215.667 325 215.667 315 207 305C197 296.333 187 296.333 177 305ZM491 0H384C370 0 363 7 363 21C363 35.6667 370 43 384 43H439L305 177C296.333 187 296.333 197 305 207C309 211 314 213 320 213C326 213 331 211 335 207L469 73V128C469 142 476.333 149 491 149C505 149 512 142 512 128V21C512 15 510 10 506 6C502 2 497 0 491 0Z" fill="white"/>
</svg>
